<svg width="30" height="10" viewBox="0 0 30 10" fill="none" xmlns="http://www.w3.org/2000/svg">
<path d="M1.13605 5.8487H29.3689C29.7055 5.8487 30 5.56619 30 5.24332C30 4.92045 29.7055 4.63794 29.3689 4.63794H1.13605C0.79944 4.63794 0.50491 4.92045 0.50491 5.24332C0.50491 5.56619 0.79944 5.8487 1.13605 5.8487Z" fill="#C7A477"/>
<path d="M7.53157 9.52139C7.65779 9.31959 7.61572 9.03708 7.40534 8.91601L1.38851 5.24336L7.36326 1.53035C7.57364 1.40928 7.65779 1.12677 7.48949 0.924973C7.36326 0.723179 7.06873 0.642462 6.85836 0.803897L0.210386 4.88013C0.0841589 4.96085 7.62939e-06 5.12228 7.62939e-06 5.24336C7.62939e-06 5.40479 0.0841589 5.52587 0.210386 5.60659L6.85836 9.68282C6.94251 9.72318 7.02666 9.76354 7.11081 9.76354C7.27911 9.72318 7.44742 9.68282 7.53157 9.52139Z" fill="#C7A477"/>
</svg>
