<svg width="19" height="28" viewBox="0 0 19 28" fill="none" xmlns="http://www.w3.org/2000/svg">
<path d="M18.4939 0H0.495078C0.220035 0 0 0.220039 0 0.495088V27.4939C0 27.769 0.220035 27.989 0.495078 27.989H18.4939C18.769 27.989 18.989 27.769 18.989 27.4939V0.495088C19 0.220039 18.769 0 18.4939 0ZM0.990156 1.21022L8.99942 4.15874V23.8303L0.990156 26.7788V1.21022ZM17.9988 26.9988H3.28952L9.67053 24.6444C9.86856 24.5674 10.0006 24.3804 10.0006 24.1823V3.81768C10.0006 3.60864 9.86856 3.42161 9.67053 3.3556L3.28952 0.990177H17.9988V26.9988Z" fill="#9D9DA1"/>
<path d="M7.38214 12.2672C6.67803 12.2672 6.11694 13.0263 6.11694 13.9945C6.11694 14.9626 6.67803 15.7218 7.38214 15.7218C8.08625 15.7218 8.64734 14.9626 8.64734 13.9945C8.64734 13.0263 8.09726 12.2672 7.38214 12.2672ZM7.38214 14.7316C7.31613 14.7206 7.1071 14.4675 7.1071 14.0055C7.1071 13.5434 7.31613 13.2903 7.38214 13.2793C7.44815 13.2903 7.65719 13.5434 7.65719 14.0055C7.65719 14.4565 7.44815 14.7096 7.38214 14.7316Z" fill="#9D9DA1"/>
</svg>
