<svg width="30" height="9" viewBox="0 0 30 9" fill="none" xmlns="http://www.w3.org/2000/svg">
<path d="M1.13605 5.1255H29.3689C29.7055 5.1255 30 4.84298 30 4.52012C30 4.19725 29.7055 3.91473 29.3689 3.91473H1.13605C0.79944 3.91473 0.50491 4.19725 0.50491 4.52012C0.50491 4.84298 0.79944 5.1255 1.13605 5.1255Z" fill="#CBA576"/>
<path d="M7.53154 8.79818C7.65776 8.59639 7.61569 8.31388 7.40531 8.1928L1.38848 4.52015L7.36323 0.807148C7.57361 0.686072 7.65776 0.403561 7.48946 0.201767C7.36323 -2.64794e-05 7.0687 -0.080744 6.85832 0.080691L0.210356 4.15692C0.0841284 4.23764 -2.28882e-05 4.39908 -2.28882e-05 4.52015C-2.28882e-05 4.68159 0.0841284 4.80266 0.210356 4.88338L6.85832 8.95962C6.94248 8.99998 7.02663 9.04033 7.11078 9.04033C7.27908 8.99997 7.44738 8.95962 7.53154 8.79818Z" fill="#CBA576"/>
</svg>
