<svg width="64" height="64" viewBox="0 0 64 64" fill="none" xmlns="http://www.w3.org/2000/svg">
<path fill-rule="evenodd" clip-rule="evenodd" d="M28.3213 63.5086L15.8833 51.1767L31.5657 35.6269L49.3921 53.3014L46.2551 56.4111L31.5657 41.8476L22.1573 51.1754L28.3226 57.2879L35.1171 50.5515L38.2541 53.6624L28.3213 63.5086Z" fill="#F5A83A"/>
<path fill-rule="evenodd" clip-rule="evenodd" d="M53.2829 49.4446L35.4565 31.7701L51.1377 16.2253L63.5757 28.5572L53.6455 38.4034L50.5085 35.2937L57.3017 28.5572L51.1364 22.4448L41.7293 31.7726L56.4186 46.3349L53.2829 49.4446Z" fill="#527EBF"/>
<path fill-rule="evenodd" clip-rule="evenodd" d="M12.5955 47.2848L0.15625 34.9529L10.0865 25.1067L13.2234 28.2164L6.43022 34.9529L12.5955 41.0653L22.0027 31.7375L7.31333 17.1727L10.4503 14.063L28.2767 31.7375L12.5955 47.2848Z" fill="#6AC184"/>
<mask id="mask0" mask-type="alpha" maskUnits="userSpaceOnUse" x="14" y="0" width="34" height="28">
<path d="M14.3413 0H47.8501V27.8792H14.3413V0Z" fill="white"/>
</mask>
<g mask="url(#mask0)">
<path fill-rule="evenodd" clip-rule="evenodd" d="M32.1692 27.8792L14.3403 10.2047L17.4773 7.09496L32.168 21.6598L41.5764 12.3319L35.4111 6.21941L28.6179 12.9559L25.4796 9.84614L35.4111 0L47.8504 12.3319L32.1692 27.8792Z" fill="#EE4941"/>
</g>
</svg>
