<svg width="193" height="25" viewBox="0 0 193 25" fill="none" xmlns="http://www.w3.org/2000/svg">
<path fill-rule="evenodd" clip-rule="evenodd" d="M6.87645 12.6755C10.4577 12.6755 12.0167 10.634 12.0167 7.53586C12.0167 5.0702 10.4222 3.23957 7.15991 3.23957H5.10482V12.6755H6.87645ZM0.213859 3.59181C0.213859 1.79654 0 0 0 0H7.65597C13.7883 0 16.9785 3.55646 16.9785 7.36037C16.9785 12.043 13.3631 15.9504 7.44463 15.9504H5.10355V21.3728C5.10355 22.9926 5.28072 24.6478 5.28072 24.6478H0.213859V3.59181ZM35.3756 15.0351C35.3756 9.92955 33.8862 6.37436 29.385 6.37436C26.0531 6.37436 24.3865 9.36648 24.3865 13.2752C24.3865 18.3795 25.9809 21.7958 30.3417 21.7958C33.5686 21.7958 35.3756 18.9425 35.3756 15.0351ZM19.5664 14.2612C19.5664 8.83875 22.4731 3.16887 30.2354 3.16887C36.6158 3.16887 40.2312 7.71134 40.2312 14.0491C40.2312 19.4715 37.3244 25 29.5255 25C23.1818 25 19.5664 20.5989 19.5664 14.2612ZM51.3608 14.0137C54.2321 14.0137 55.7203 12.7108 55.7203 10.2464C55.7203 8.34512 54.8344 6.83138 51.5734 6.83138H49.517V14.015H51.3608V14.0137ZM52.5301 17.2546C52.5301 17.2546 52.0694 17.3594 51.0419 17.3594H49.517V21.3741C49.517 22.9926 49.6942 24.6478 49.6942 24.6478H44.8032V7.11166C44.8032 5.31765 44.5906 3.48576 44.5906 3.48576H52.0694C57.3869 3.48576 60.5062 6.09156 60.5062 10.2464C60.5062 12.9583 59.1231 14.9644 56.6782 15.9504L60.5062 21.9725C61.0726 22.8961 61.6876 23.7891 62.3487 24.6478L56.9617 24.8245L52.5301 17.2546ZM69.3669 6.76068L65.6097 6.83138C64.4405 6.86673 62.8814 7.04348 62.8814 7.04348L63.0586 3.48702H80.8508L80.6737 7.04348C80.6737 7.04348 79.0083 6.86673 78.1934 6.83138L74.0807 6.76068V21.3728C74.0807 22.9926 74.2578 24.6478 74.2578 24.6478H69.3669V6.76068ZM84.1828 7.11292C84.1828 5.31765 83.9702 3.48702 83.9702 3.48702H98.786L98.6089 6.86673C98.6089 6.86673 97.475 6.68998 95.3491 6.65463L88.8978 6.58519V12.5354L96.4829 12.4293L96.3058 15.7749L88.8978 15.6335V21.5837L95.2428 21.5142C96.6246 21.4789 98.9632 21.2668 98.9632 21.2668L98.786 24.6478H84.1828V7.11292ZM117.219 12.7474C121.365 12.7474 123.137 10.634 123.137 7.64064C123.137 4.93006 121.33 3.23957 117.926 3.23957H115.871V12.7462H117.219V12.7474ZM118.813 15.9504H115.871V21.3728C115.871 22.9926 116.048 24.6478 116.048 24.6478H110.979V3.59181C110.979 1.79654 110.767 0 110.767 0H118.423C124.554 0 128.099 2.99339 128.099 7.81739C128.099 10.9509 125.796 13.3093 122.995 14.2612L127.603 21.9713C128.169 22.8951 128.784 23.7885 129.445 24.6478L123.987 24.8245L118.812 15.9504H118.813ZM133.062 7.11292C133.062 5.31765 132.848 3.23957 132.848 3.23957L137.776 3.31027V21.3728C137.776 22.9926 137.953 24.6478 137.953 24.6478H133.062V7.11292ZM142.348 14.4026C142.348 8.73397 145.501 3.17014 152.379 3.17014C155.568 3.17014 157.378 4.1915 159.149 4.68387L158.12 8.13428C156.278 7.64191 154.966 6.65589 152.202 6.65589C148.941 6.65589 147.31 9.22508 147.31 13.9784C147.31 19.0486 149.224 21.5142 153.265 21.5142C156.277 21.5142 158.51 20.4929 158.51 20.4929L158.972 23.5557C158.972 23.5557 156.739 25 152.84 25C146.849 25 142.349 21.4789 142.349 14.4013L142.348 14.4026ZM163.154 7.11292C163.154 5.31765 162.942 3.48702 162.942 3.48702L167.868 3.31027V12.4293H177.581V7.11292C177.581 5.31765 177.368 3.48702 177.368 3.48702L182.294 3.31027V21.3728C182.294 22.9926 182.471 24.6478 182.471 24.6478H177.581V15.7396H167.868V21.3716C167.868 22.9914 168.045 24.6465 168.045 24.6465H163.154V7.11292ZM188.109 7.11292C188.109 5.31765 187.895 3.16887 187.895 3.16887L192.823 3.31027V21.3728C192.823 22.9926 193 24.6478 193 24.6478H188.109V7.11292Z" fill="black"/>
</svg>
