<svg width="30" height="9" viewBox="0 0 30 9" fill="none" xmlns="http://www.w3.org/2000/svg">
<path d="M28.864 5.1255H0.631136C0.29453 5.1255 0 4.84298 0 4.52012C0 4.19725 0.29453 3.91473 0.631136 3.91473H28.864C29.2006 3.91473 29.4951 4.19725 29.4951 4.52012C29.4951 4.84298 29.2006 5.1255 28.864 5.1255Z" fill="#9D9DA1"/>
<path d="M22.4685 8.79818C22.3422 8.59639 22.3843 8.31388 22.5947 8.1928L28.6115 4.52015L22.6368 0.807148C22.4264 0.686072 22.3422 0.403561 22.5105 0.201767C22.6368 -2.64794e-05 22.9313 -0.080744 23.1417 0.080691L29.7896 4.15692C29.9159 4.23764 30 4.39908 30 4.52015C30 4.68159 29.9159 4.80266 29.7896 4.88338L23.1417 8.95962C23.0575 8.99998 22.9734 9.04033 22.8892 9.04033C22.7209 8.99997 22.5526 8.95962 22.4685 8.79818Z" fill="#9D9DA1"/>
</svg>
