<svg width="15" height="15" viewBox="0 0 15 15" fill="none" xmlns="http://www.w3.org/2000/svg">
<path d="M6.26767 2.3894C5.82187 2.3894 5.48096 2.73454 5.48096 3.18586C5.48096 3.63719 5.82187 3.98232 6.26767 3.98232C7.23795 3.98232 8.07711 4.5133 8.49669 5.3894C8.62781 5.68144 8.91627 5.84073 9.20473 5.84073C9.30963 5.84073 9.44075 5.81418 9.54564 5.76109C9.939 5.57525 10.0963 5.09737 9.91277 4.69914C9.23096 3.26551 7.8411 2.3894 6.26767 2.3894Z" fill="#A2A2A5"/>
<path d="M14.7115 13.3009L12.0892 10.646C12.8759 9.53097 13.3217 8.20354 13.3217 6.74336C13.3479 3.02655 10.3584 0 6.66084 0C2.96329 0 0 3.02655 0 6.74336C0 10.4602 2.98951 13.4867 6.66084 13.4867C8.20804 13.4867 9.5979 12.9558 10.7255 12.0531L13.3217 14.6814C13.5052 14.8673 13.7675 14.9735 14.0035 14.9735C14.2657 14.9735 14.5018 14.8673 14.6853 14.6814C15.1049 14.3097 15.1049 13.6991 14.7115 13.3009ZM1.57343 6.74336C1.57343 3.90265 3.8549 1.59292 6.66084 1.59292C9.46679 1.59292 11.7745 3.90265 11.7745 6.76991C11.7745 7.9646 11.3811 9.0531 10.6993 9.9292C10.4895 10.2212 10.2273 10.4867 9.96504 10.7257C9.07343 11.4956 7.91958 11.9469 6.66084 11.9469C3.8549 11.9204 1.57343 9.61062 1.57343 6.74336Z" fill="#A2A2A5"/>
</svg>
