<svg width="30" height="9" viewBox="0 0 30 9" fill="none" xmlns="http://www.w3.org/2000/svg">
<path d="M28.864 5.12556H0.631136C0.29453 5.12556 0 4.84305 0 4.52018C0 4.19731 0.29453 3.91479 0.631136 3.91479H28.864C29.2006 3.91479 29.4951 4.19731 29.4951 4.52018C29.4951 4.84305 29.2006 5.12556 28.864 5.12556Z" fill="#C7A477"/>
<path d="M22.4685 8.79824C22.3422 8.59645 22.3843 8.31394 22.5947 8.19286L28.6115 4.52021L22.6368 0.807209C22.4264 0.686133 22.3422 0.403622 22.5105 0.201828C22.6368 3.45558e-05 22.9313 -0.0806829 23.1417 0.0807521L29.7896 4.15699C29.9159 4.2377 30 4.39914 30 4.52021C30 4.68165 29.9159 4.80273 29.7896 4.88344L23.1417 8.95968C23.0575 9.00004 22.9734 9.04039 22.8892 9.04039C22.7209 9.00004 22.5526 8.95968 22.4685 8.79824Z" fill="#C7A477"/>
</svg>
